<svg width="30" height="30" viewBox="0 0 30 30" fill="none" xmlns="http://www.w3.org/2000/svg">
  <g fill="#FFF8E1">
    <!-- İnsan figürü 1 -->
    <circle cx="8" cy="6" r="3" />
    <path d="M8 12c-3 0-5 2-5 4v2h10v-2c0-2-2-4-5-4z" />
    
    <!-- İnsan figürü 2 -->
    <circle cx="22" cy="6" r="3" />
    <path d="M22 12c-3 0-5 2-5 4v2h10v-2c0-2-2-4-5-4z" />
    
    <!-- İnsan figürü 3 -->
    <circle cx="15" cy="18" r="3" />
    <path d="M15 24c-3 0-5 2-5 4v2h10v-2c0-2-2-4-5-4z" />
  </g>
</svg>